:SAMPLES-PER-SECOND 30
:FULLY-SPECIFIED
:DEGREES
29
root  27.7044 39.85 0.876897 -174.172 -85.7342 170.87
RightUpLeg  1.96038 -7.75566 -5.09089
RightLeg  3.03938 12.4234 -0.816483
RightFoot  -2.13405 -0.183157 2.10944
RightToes  -1.33073e-015 0 -3.6325e-017
Spine  4.47223 0.359076 0.75547
Spine1  1.93806 0.729837 -1.51868
HEad  -10.3283 -5.50082 -3.41124
LeftShoulder1  0.143522 1.70024 0.575032
LeftArm  -20.6562 2.20887 -13.4198
LeftForeArm  -0.479277 1.44416 2.06875
LeftHand  -0.027851 3.95314 0.301044
RightShoulder  0.0910819 -1.92206 -3.21491
RightArm  -11.9815 4.63715 8.77335
RightForeArm  -1.30155 -4.03319 -3.61622
RightHand  0.187022 3.96623 2.05219
LeftUpLeg  4.1406 6.80174 4.20962
LeftLeg  2.95293 -6.7512 1.15046
LeftFoot  -3.33514 0.0284441 -0.116393
LeftToes  -1.03319e-009 7.52634e-011 -3.26162e-012
30
root  27.7097 39.8447 0.8731 -173.813 -85.7943 170.547
RightUpLeg  1.88162 -7.80584 -5.12936
RightLeg  3.16336 12.3931 -0.731911
RightFoot  -2.28204 -0.179466 2.08173
RightToes  -1.33073e-015 0 -3.6325e-017
Spine  4.50033 0.369249 0.645056
Spine1  1.87316 0.719255 -1.44981
HEad  -9.80013 -5.40856 -3.66775
LeftShoulder1  0.146516 1.68225 0.470479
LeftArm  -20.7387 2.03437 -13.4851
LeftForeArm  -0.535766 1.44845 2.08302
LeftHand  -0.0288356 4.16264 0.724077
RightShoulder  0.0914757 -1.87603 -3.17602
RightArm  -12.0304 4.62513 8.62677
RightForeArm  -0.86513 -4.05925 -3.66798
RightHand  0.204763 3.85247 2.30646
LeftUpLeg  4.01088 6.8361 4.21341
LeftLeg  3.11732 -6.83016 1.08801
LeftFoot  -3.38016 0.0168103 0.0684671
LeftToes  -1.03319e-009 7.52634e-011 -3.26162e-012
31
root  27.7217 39.8354 0.869516 -174.397 -85.8868 171.137
RightUpLeg  1.76257 -7.76726 -5.05843
RightLeg  3.39033 12.2757 -0.684256
RightFoot  -2.37463 -0.177644 2.07655
RightToes  -1.33073e-015 0 -3.6325e-017
Spine  4.5714 0.342089 0.741034
Spine1  1.84105 0.713018 -1.55153
HEad  -9.19561 -5.14166 -3.86469
LeftShoulder1  0.156679 1.5918 0.299034
LeftArm  -20.9207 1.88555 -13.4017
LeftForeArm  -0.18464 1.42673 2.16421
LeftHand  -0.0300802 4.24658 0.71334
RightShoulder  0.0916437 -1.89823 -3.11352
RightArm  -12.1578 4.70863 8.60632
RightForeArm  -0.688067 -4.1089 -3.71568
RightHand  0.184989 3.66896 2.11461
LeftUpLeg  3.89737 6.97399 4.37577
LeftLeg  3.29299 -7.12531 0.932834
LeftFoot  -3.51775 0.0228328 -0.021466
LeftToes  -1.03319e-009 7.52634e-011 -3.26162e-012
32
root  27.7324 39.8302 0.864761 -175.825 -85.9813 172.527
RightUpLeg  1.71678 -7.73229 -4.95286
RightLeg  3.59861 12.1597 -0.60224
RightFoot  -2.40232 -0.168467 1.9446
RightToes  -1.33073e-015 0 -3.6325e-017
Spine  4.91319 0.286385 0.859906
Spine1  1.5013 0.668916 -1.62852
HEad  -8.50239 -4.83492 -4.19425
LeftShoulder1  0.156456 1.57382 0.357768
LeftArm  -20.9533 2.00088 -13.4959
LeftForeArm  0.173056 1.26328 2.19275
LeftHand  -0.0255967 3.65752 0.113539
RightShoulder  0.0915327 -1.91808 -3.02003
RightArm  -12.2268 4.65826 8.57447
RightForeArm  -0.561314 -3.75149 -3.70418
RightHand  0.188696 3.76402 2.1319
LeftUpLeg  3.87839 7.15978 4.61402
LeftLeg  3.3813 -7.44374 0.779421
LeftFoot  -3.5937 0.0373306 -0.243376
LeftToes  -1.03319e-009 7.52634e-011 -3.26162e-012
33
root  27.7424 39.824 0.857336 -176.151 -86.0888 172.863
RightUpLeg  1.68196 -7.71057 -4.90512
RightLeg  3.65033 12.0361 -0.590285
RightFoot  -2.4666 -0.17197 1.99467
RightToes  -1.33073e-015 0 -3.6325e-017
Spine  5.07818 0.277903 0.78225
Spine1  1.34695 0.61494 -1.39692
HEad  -8.22082 -4.34085 -4.43934
LeftShoulder1  0.149501 1.68664 0.0558202
LeftArm  -20.9941 1.87603 -13.6549
LeftForeArm  0.685143 0.926851 2.13162
LeftHand  -0.023527 3.50354 0.364828
RightShoulder  0.0911426 -1.84127 -3.13586
RightArm  -12.3772 4.3321 8.7051
RightForeArm  -0.470658 -3.17215 -3.73003
RightHand  0.192635 3.86926 2.14351
LeftUpLeg  3.83945 7.29108 4.76035
LeftLeg  3.39591 -7.72915 0.637153
LeftFoot  -3.65061 0.0468843 -0.388585
LeftToes  -1.03319e-009 7.52634e-011 -3.26162e-012
34
root  27.7546 39.8219 0.843557 -175.933 -86.2426 172.666
RightUpLeg  1.63313 -7.69014 -4.86607
RightLeg  3.72075 11.8816 -0.590331
RightFoot  -2.5008 -0.16113 1.84208
RightToes  -1.33073e-015 0 -3.6325e-017
Spine  5.20006 0.247109 0.729527
Spine1  1.32879 0.563772 -1.2999
HEad  -7.83803 -4.00556 -4.586
LeftShoulder1  0.146986 1.78075 -0.072421
LeftArm  -21.3774 2.17101 -14.3729
LeftForeArm  1.22544 -0.18616 2.18092
LeftHand  -0.0323568 4.25739 0.986199
RightShoulder  0.0902846 -1.97772 -3.02582
RightArm  -12.7534 3.94381 9.21551
RightForeArm  -0.506832 -1.89358 -3.7349
RightHand  0.121206 3.39595 1.36274
LeftUpLeg  3.69755 7.34826 4.82874
LeftLeg  3.55014 -7.98105 0.543998
LeftFoot  -3.66804 0.0506433 -0.443736
LeftToes  -1.03319e-009 7.52634e-011 -3.26162e-012
